<svg xmlns="http://www.w3.org/2000/svg" fill="#7172A6" width="1706.667" height="1634.667" viewBox="0 0 1280 1226" preserveAspectRatio="xMidYMid meet" xmlns:v="https://vecta.io/nano"><path d="M574.8 72.7L484 264l-56.6 118.9c-.1.2-96.3 15.8-213.6 34.7L.3 451.9c-.2.1-.3 11-.3 24.4v24.3l149.1 140.9 151.4 143 2.4 2-5.4 34.5-13.5 86.5-12.5 80L260 1061l-16.3 105-9.3 59.5 26.9.3 27 .2 175.6-95.6 180.1-98.2 4.5-2.4 193.8 98.1 193.8 98.1 17.2-.2 17.3-.3-41.8-222.5-41.5-225.1c.1-2 34.4-36.9 146.5-149.5L1280 481.5l-.2-24.5-.3-24.4-17-2.3-129.5-16.8-197.5-25.6-85.7-11.7c-.3-.4-21.1-40.5-46-89.2L707.5 99.2 656.5 0h-23.6-23.6l-34.5 72.7z"/></svg>